<?xml version="1.0" encoding="UTF-8" ?>
<!DOCTYPE svg PUBLIC "-//W3C//DTD SVG 1.1//EN" "http://www.w3.org/Graphics/SVG/1.1/DTD/svg11.dtd">
<svg width="142pt" height="220pt" viewBox="0 0 142 220" version="1.1" xmlns="http://www.w3.org/2000/svg">

<path fill="#191919" d=" M 84.55 4.50 C 87.15 3.58 89.87 0.41 92.66 2.52 C 89.67 3.87 86.83 5.54 83.79 6.78 C 75.67 9.43 66.78 9.25 58.96 12.88 C 55.32 14.50 51.82 16.48 48.01 17.67 C 42.20 19.71 35.88 19.28 29.99 20.99 C 27.08 21.86 24.42 23.42 21.46 24.18 C 29.53 17.31 40.90 19.46 50.05 15.22 C 53.11 13.86 56.03 12.18 59.12 10.89 C 67.19 7.29 76.42 7.83 84.55 4.50 Z" />
<path fill="#191919" d=" M 96.43 4.23 C 97.65 4.44 98.68 5.17 99.75 5.74 C 99.33 6.32 98.48 7.47 98.06 8.05 C 97.98 17.74 100.55 27.51 105.24 35.99 L 103.38 35.68 C 105.73 41.11 107.90 46.62 110.61 51.89 L 109.08 52.47 L 108.92 50.00 C 108.00 51.22 108.57 54.19 106.42 53.88 C 103.82 52.10 100.80 54.47 98.17 55.16 C 84.82 61.29 70.68 65.40 56.63 69.58 C 53.67 70.51 50.72 71.48 47.91 72.82 C 43.34 73.02 37.83 72.73 34.50 76.40 C 33.59 76.90 32.63 77.29 31.62 77.57 C 27.02 77.45 22.53 78.65 18.07 79.61 C 15.59 80.08 13.17 81.03 11.40 82.89 C 14.34 83.86 17.35 83.20 20.20 82.30 C 27.46 81.19 34.71 80.03 41.93 78.71 L 41.69 77.98 C 40.64 77.57 39.60 77.14 38.57 76.70 C 39.63 76.65 41.75 76.55 42.81 76.49 L 42.55 75.67 C 53.17 72.86 64.07 71.47 74.85 69.47 C 81.39 68.49 87.19 64.91 93.69 63.84 C 89.91 66.50 85.32 67.62 80.95 68.94 C 80.84 69.40 80.60 70.31 80.49 70.77 C 84.98 70.38 89.35 69.23 93.78 68.48 C 93.65 68.68 93.37 69.07 93.23 69.26 C 94.58 69.65 95.93 70.05 97.28 70.47 C 94.94 71.09 92.60 71.75 90.19 72.03 C 89.99 72.42 89.61 73.19 89.42 73.58 C 92.67 73.36 96.09 71.74 99.22 72.17 C 99.08 72.38 98.80 72.79 98.66 73.00 C 94.40 74.18 90.04 75.08 85.64 75.44 L 85.67 74.80 C 86.73 74.56 88.84 74.08 89.90 73.85 C 88.41 73.03 86.68 73.03 85.06 72.70 C 85.79 72.03 86.70 71.63 87.77 71.48 L 88.16 71.13 C 86.10 70.13 83.26 71.68 80.92 71.70 C 81.56 72.21 82.20 72.72 82.84 73.24 C 82.98 75.09 79.92 73.84 78.86 74.55 C 80.50 74.76 82.17 74.73 83.78 75.13 C 83.83 75.34 83.94 75.75 83.99 75.95 C 75.95 76.81 67.92 77.76 59.86 78.33 C 45.03 81.30 29.86 81.99 15.00 84.71 C 12.68 85.10 7.88 82.75 11.74 79.94 C 10.16 81.32 8.67 82.83 6.95 84.06 C 8.22 79.97 12.85 79.20 15.89 76.87 C 15.40 77.60 14.42 79.07 13.93 79.80 C 19.76 77.54 26.04 76.98 32.12 75.71 C 31.38 70.66 30.24 65.67 28.97 60.73 C 29.71 60.40 30.45 60.07 31.19 59.73 C 30.84 58.90 30.14 57.24 29.78 56.41 C 32.99 57.66 31.34 60.51 31.20 63.01 C 31.97 66.69 32.93 70.36 33.15 74.13 C 39.11 72.10 45.50 71.80 51.43 69.65 C 63.75 65.30 76.64 62.68 88.75 57.71 C 94.60 55.47 100.15 52.15 106.51 51.59 C 104.17 48.70 101.11 45.59 102.00 41.51 C 103.04 44.46 104.30 47.34 106.21 49.84 C 106.81 50.02 108.02 50.38 108.62 50.56 C 102.52 36.98 96.57 22.83 96.28 7.70 C 90.87 8.45 86.04 10.98 81.03 12.97 C 84.94 9.40 90.02 7.47 95.11 6.32 C 95.44 5.79 96.10 4.75 96.43 4.23 Z" />
<path fill="#191919" d=" M 36.20 9.15 C 38.37 10.21 41.79 10.93 41.95 13.85 C 40.27 15.84 37.32 15.56 34.99 16.04 C 25.87 16.92 18.45 22.72 10.85 27.26 C 11.35 27.93 11.84 28.60 12.33 29.27 C 14.59 33.59 17.64 37.53 18.87 42.35 C 19.65 42.89 20.50 43.30 21.42 43.59 C 19.75 38.77 17.02 34.38 15.73 29.44 C 16.19 29.66 17.12 30.11 17.58 30.34 C 20.08 34.85 21.30 39.91 23.50 44.56 C 25.54 48.92 27.32 53.40 29.46 57.71 C 29.02 58.39 28.58 59.07 28.13 59.74 C 27.07 54.80 24.48 50.37 22.17 45.94 C 21.92 45.10 20.62 43.15 19.99 44.82 C 20.43 46.56 20.96 48.29 20.97 50.10 C 17.42 43.39 15.82 35.38 9.87 30.19 C 8.99 28.96 6.71 28.21 7.13 26.44 C 14.07 24.76 19.11 19.11 25.81 16.80 C 30.28 14.80 35.19 14.51 39.94 13.64 C 40.03 11.46 37.41 10.65 36.20 9.15 Z" />
<path fill="#191919" d=" M 108.26 57.74 C 107.13 57.00 106.24 55.43 107.90 54.70 C 109.59 54.87 110.16 56.74 111.23 57.79 C 116.07 59.16 121.02 59.76 126.04 59.33 C 124.87 60.22 123.68 61.09 122.45 61.90 C 125.07 61.90 127.69 61.97 130.31 61.91 C 129.51 59.24 132.65 60.60 133.94 60.12 C 133.51 61.35 133.07 62.58 132.64 63.81 C 120.87 66.18 108.65 66.34 97.26 70.44 C 96.54 70.10 95.10 69.40 94.38 69.05 L 94.28 68.35 C 100.19 67.28 106.29 66.36 111.61 63.40 C 111.53 63.88 111.37 64.82 111.29 65.29 C 114.56 64.48 117.92 63.80 121.29 64.42 C 121.03 60.38 116.72 60.70 113.80 59.89 C 111.56 62.82 109.80 59.20 108.26 57.74 Z" />
<path fill="#191919" d=" M 100.65 71.76 C 101.64 70.60 103.44 69.40 105.02 69.96 C 105.63 71.57 100.46 73.55 100.65 71.76 Z" />
<path fill="#191919" d=" M 44.33 98.13 C 46.86 97.37 50.54 95.22 51.73 99.01 C 54.14 98.18 56.52 97.25 58.95 96.49 C 61.77 97.91 64.82 99.78 65.77 103.00 C 66.14 108.09 63.90 113.79 59.19 116.26 C 54.99 119.13 48.78 118.59 45.43 114.66 C 42.95 111.43 43.00 107.12 43.54 103.29 C 41.24 103.95 37.85 102.94 36.57 105.55 C 33.85 109.75 30.56 113.90 30.06 119.07 C 29.05 127.63 28.82 136.36 30.04 144.92 C 30.31 151.80 29.46 158.66 28.86 165.50 C 28.40 165.25 27.47 164.75 27.01 164.50 C 27.78 156.37 28.75 148.13 27.48 139.99 C 27.07 132.58 27.25 125.09 28.36 117.75 C 29.20 111.75 33.60 107.28 36.39 102.15 C 38.98 101.94 41.54 101.54 44.04 100.84 C 44.11 100.16 44.26 98.81 44.33 98.13 Z" />
<path fill="#191919" d=" M 111.51 136.88 C 114.26 134.47 116.85 131.54 120.42 130.37 C 119.69 133.35 117.96 135.91 116.68 138.65 C 114.79 142.21 110.85 143.87 107.04 144.39 C 100.41 147.00 93.09 146.23 86.13 146.98 C 84.18 147.10 81.60 148.81 80.19 146.66 C 80.38 144.47 80.90 142.33 81.14 140.15 C 83.90 136.93 88.24 138.48 91.87 137.67 C 98.39 135.89 105.19 139.95 111.51 136.88 Z" />
<path fill="#191919" d=" M 39.13 135.89 C 41.04 135.68 42.01 137.57 43.27 138.65 C 45.53 141.19 49.04 142.62 52.43 142.00 C 55.78 139.56 60.00 139.29 63.74 137.77 C 66.58 136.76 69.84 135.41 72.63 137.30 C 74.51 139.12 75.50 141.75 77.91 143.06 C 77.43 143.97 76.96 144.89 76.50 145.82 C 73.56 147.22 70.22 146.73 67.18 147.76 C 60.59 149.06 53.91 151.90 47.12 150.18 C 45.88 151.05 44.60 152.39 43.13 151.04 C 42.87 149.36 42.82 147.67 42.73 145.98 C 40.63 143.13 37.30 139.66 39.13 135.89 Z" />
<path fill="#191919" d=" M 65.92 144.79 C 66.02 143.55 66.22 141.06 66.32 139.82 C 68.25 140.63 70.21 141.42 72.22 142.05 C 71.59 142.50 70.31 143.38 69.68 143.83 C 68.84 143.88 68.02 143.75 67.23 143.44 L 65.92 144.79 Z" />
<path fill="#191919" d=" M 85.94 184.88 C 90.04 181.67 93.90 178.18 97.49 174.40 C 100.55 183.85 100.51 193.89 101.86 203.64 C 101.60 204.01 101.06 204.75 100.79 205.12 C 100.79 207.90 100.95 210.67 101.36 213.42 C 101.25 214.01 101.04 215.19 100.93 215.77 C 100.07 216.00 98.37 216.44 97.51 216.66 C 91.52 214.60 86.36 210.87 81.07 207.50 C 82.30 207.11 83.56 207.24 84.81 207.40 C 84.90 205.00 80.73 207.63 79.91 207.15 L 81.70 205.14 C 81.13 204.28 79.99 202.55 79.42 201.69 L 81.81 202.97 L 82.59 201.95 C 83.72 202.88 84.90 203.74 86.14 204.53 C 85.47 203.48 84.77 202.45 84.05 201.45 C 84.18 201.16 84.46 200.59 84.60 200.31 C 88.00 203.50 91.07 207.22 95.29 209.37 C 93.13 207.11 90.73 205.03 89.14 202.30 C 91.38 203.75 93.13 206.02 95.77 206.79 C 96.60 207.55 97.42 208.32 98.25 209.09 C 99.97 198.89 98.79 188.40 96.96 178.28 C 92.99 182.03 88.40 185.18 85.56 189.99 C 85.00 189.99 83.88 190.01 83.32 190.02 C 81.81 192.24 80.26 194.44 78.53 196.50 C 80.65 199.20 77.47 203.74 81.21 205.09 C 80.86 205.55 80.50 206.01 80.14 206.47 C 79.72 206.22 78.87 205.72 78.45 205.47 C 76.48 207.52 74.52 209.87 71.60 210.49 C 65.87 211.89 59.97 208.77 56.17 204.60 C 52.08 207.80 47.73 210.71 42.96 212.80 C 38.18 214.83 34.01 218.09 29.03 219.67 C 28.70 213.88 29.31 208.08 28.71 202.30 C 29.08 201.96 29.81 201.28 30.18 200.94 C 29.89 195.96 30.06 190.97 29.91 185.99 C 29.79 184.36 30.15 182.84 30.98 181.43 C 32.29 186.13 31.30 191.42 33.29 195.83 C 33.14 194.60 32.83 192.15 32.68 190.92 C 35.59 195.42 38.91 199.63 42.50 203.61 C 40.81 203.22 39.15 202.66 37.66 201.75 L 37.51 201.53 L 37.33 201.43 C 37.41 201.51 37.58 201.67 37.66 201.75 C 38.73 203.83 40.39 205.47 42.11 207.01 C 42.75 206.95 44.03 206.83 44.68 206.77 C 43.20 207.79 41.72 209.07 41.76 211.05 C 39.14 212.01 37.39 209.50 35.50 208.23 C 36.22 210.14 37.87 211.63 39.97 211.63 C 42.36 211.27 44.40 209.83 46.56 208.83 C 45.87 203.75 52.62 203.62 55.95 202.35 C 56.58 200.59 57.23 198.84 57.92 197.11 C 51.37 193.49 45.10 189.37 39.12 184.86 C 36.72 183.21 35.18 180.57 32.53 179.26 C 32.92 177.64 34.33 177.66 35.35 178.73 C 41.24 183.23 46.90 188.19 53.75 191.21 L 53.10 188.51 C 53.79 189.22 55.18 190.65 55.87 191.36 C 55.26 192.45 54.32 192.87 53.03 192.63 C 54.82 193.37 56.51 194.29 58.21 195.19 C 61.08 193.01 64.28 190.63 68.07 190.82 C 71.75 190.60 74.86 192.84 77.62 194.99 C 80.36 191.60 81.99 187.11 85.94 184.88 Z" />
<path fill="#191919" d=" M 36.81 192.83 C 38.99 195.73 41.13 198.69 43.01 201.80 C 39.56 200.09 37.54 196.48 36.81 192.83 Z" />
<path fill="#191919" d=" M 60.73 196.97 C 63.06 198.03 63.84 200.58 65.21 202.53 C 65.43 202.65 65.86 202.90 66.08 203.03 C 65.86 202.90 65.43 202.65 65.21 202.53 C 65.10 201.38 64.87 199.08 64.76 197.93 C 66.27 200.38 67.57 202.96 69.12 205.40 C 68.22 204.86 66.40 203.79 65.49 203.25 C 66.22 204.21 67.68 206.14 68.41 207.11 L 66.90 207.98 C 65.13 204.10 61.17 201.56 60.73 196.97 Z" />
</svg>
